<svg xmlns="http://www.w3.org/2000/svg" viewBox="70 10 160 388" width="160" height="388" fill="none"><g transform="translate(0.0 -4.0)">
<g id="109">
<g id="gee_me_060">
<g id="costume">
<g id="lower limb">
<path id="Path" d="M163.445 311.902V370.949C163.445 374.095 166.047 376.646 169.257 376.646C172.467 376.646 175.069 374.095 175.069 370.949V311.902C175.069 308.755 172.467 306.204 169.257 306.204C166.047 306.204 163.445 308.755 163.445 311.902Z" fill="#EBBAAA"/>
<g id="class_boot">
<g id="Group 6">
<path id="Path_2" d="M208.743 387.123C209.239 385.966 208.882 384.381 208.604 383.948C208.327 383.518 174.594 381.532 174.594 381.532C168.995 381.102 157.897 379.289 157.13 382.41C156.182 386.271 156.225 387.144 156.872 390.133C157.906 391.13 168.373 392 171.766 391.254C171.766 389.508 172.031 388.39 172.031 388.39C172.031 388.39 173.922 389.519 176.142 390.008C180.668 391.005 181.535 392 195.555 392C206.8 391.003 207.633 389.71 208.743 387.123Z" fill="#1D1D1D"/>
<path id="Path_3" d="M172.262 370.329C169.448 370.366 165.152 369.493 162.814 366.429C162.608 366.16 162.201 366.116 161.962 366.359C159.846 368.503 161.214 367.281 160.368 370.956C159.534 374.576 158.83 374.059 157.996 377.423C157.418 379.751 155.548 385.182 157.996 385.182H169.158C171.799 385.182 175.365 388.074 184.16 388.888C198.758 390.237 202.325 388.39 205.24 387.518C211.872 385.534 208.507 380.997 205.24 379.546C200.455 377.423 193.597 375.827 190.109 374.066C187.393 372.696 186.46 372.272 185.065 370.829C183.28 368.983 182.526 367.807 181.961 366.887C181.723 366.502 181.097 366.592 180.844 366.97C179.304 369.278 174.859 370.298 172.262 370.329Z" fill="black"/>
<path id="Path_4" d="M181.353 367.328C181.008 367.172 180.602 367.307 180.424 367.63L180.404 367.67C180.306 367.878 180.107 368.136 179.801 368.455L179.676 368.584C179.589 368.672 179.493 368.765 179.378 368.875L178.637 369.577C178.382 369.823 178.273 369.939 178.109 370.128C177.698 370.603 177.471 371.019 177.471 371.479C177.471 371.945 177.925 372.277 178.376 372.155L178.418 372.142L181.972 370.947L180.468 373.041C180.09 373.567 180.574 374.264 181.201 374.13L181.242 374.12L184.516 373.238L183.254 374.892C182.871 375.394 183.301 376.091 183.921 376.006L183.963 376L187.449 375.334L185.851 376.789C185.574 377.042 185.547 377.46 185.782 377.744L185.814 377.78C186.072 378.052 186.498 378.078 186.788 377.848L186.825 377.817L190.257 374.691C190.773 374.22 190.357 373.388 189.676 373.482L189.633 373.489L185.509 374.276L186.91 372.44C187.31 371.916 186.826 371.198 186.189 371.334L186.148 371.344L182.785 372.25L184.411 369.987C184.802 369.442 184.273 368.729 183.635 368.908L183.595 368.92L180.176 370.069L180.381 369.875C180.545 369.718 180.674 369.59 180.798 369.463L180.844 369.415C181.245 368.996 181.526 368.631 181.702 368.259C181.868 367.907 181.711 367.491 181.353 367.328Z" fill="#1C1B1B"/>
<path id="Path_5" d="M204.439 383.482C204.296 383.002 203.783 382.726 203.293 382.866L202.899 382.977C201.299 383.423 200.157 383.664 198.712 383.811C196.593 384.026 194.345 383.927 191.852 383.435C191.352 383.337 190.864 383.654 190.763 384.145C190.663 384.636 190.987 385.114 191.487 385.212C194.165 385.741 196.6 385.848 198.903 385.614C200.597 385.442 201.899 385.152 203.81 384.606C204.3 384.466 204.582 383.963 204.439 383.482Z" fill="white" fill-opacity="0.11"/>
<path id="Path_6" d="M184.726 377.179C182.139 374.938 180.216 373.817 178.147 371.326C177.026 371.326 175.546 371.45 171.279 371.45C165.717 371.45 164.243 369.207 161.786 366.594C159.92 367.713 160.881 370.08 159.587 373.317C158.553 375.91 156.613 379.794 156.613 384.528C157.518 386.023 166.442 385.274 169.287 385.274C169.934 382.286 174.977 379.794 177.222 379.173C179.193 378.626 181.493 378.424 184.726 377.179Z" fill="#1B1A1A"/>
</g>
<path id="Path_7" d="M183.166 362.661H158.995L159.438 364.793L160.316 368.877L165.599 370.555L181.495 370.361L181.76 369.195L182.109 367.512L182.552 365.569L183.166 362.661Z" fill="black"/>
</g>
<path id="Path_8" d="M124.349 311.902V375.481C124.349 378.627 126.951 381.178 130.16 381.178C133.37 381.178 135.972 378.627 135.972 375.481V311.902C135.972 308.755 133.37 306.204 130.16 306.204C126.951 306.204 124.349 308.755 124.349 311.902Z" fill="#EBBAAA"/>
<g id="class_boot_2">
<g id="Group 6_2">
<path id="Path_9" d="M90.1416 386.087C89.6455 384.93 90.0026 383.345 90.2804 382.912C90.5582 382.482 124.291 380.496 124.291 380.496C129.89 380.066 140.987 378.253 141.755 381.374C142.703 385.235 142.66 386.108 142.013 389.097C140.978 390.094 130.512 390.964 127.118 390.218C127.118 388.473 126.854 387.354 126.854 387.354C126.854 387.354 124.962 388.483 122.743 388.972C118.217 389.969 117.35 390.964 103.33 390.964C92.0852 389.967 91.2522 388.675 90.1416 386.087Z" fill="#1D1D1D"/>
<path id="Path_10" d="M126.623 369.293C129.437 369.33 133.733 368.457 136.07 365.393C136.276 365.124 136.684 365.08 136.923 365.323C139.039 367.468 137.671 366.245 138.517 369.92C139.351 373.541 140.055 373.023 140.889 376.387C141.466 378.715 143.336 384.146 140.889 384.146H129.727C127.086 384.146 123.519 387.038 114.725 387.852C100.127 389.201 96.5593 387.354 93.6445 386.482C87.0124 384.498 90.3781 379.961 93.6445 378.51C98.4296 376.387 105.288 374.791 108.776 373.03C111.492 371.66 112.425 371.236 113.82 369.793C115.604 367.947 116.359 366.771 116.924 365.852C117.162 365.466 117.788 365.556 118.04 365.934C119.58 368.242 124.026 369.262 126.623 369.293Z" fill="black"/>
<path id="Path_11" d="M117.532 366.292C117.876 366.136 118.283 366.271 118.461 366.594L118.481 366.634C118.579 366.842 118.778 367.1 119.083 367.419L119.209 367.548C119.296 367.636 119.392 367.729 119.507 367.839L120.248 368.541C120.503 368.787 120.612 368.903 120.776 369.092C121.186 369.567 121.414 369.983 121.414 370.443C121.414 370.909 120.96 371.241 120.509 371.119L120.467 371.106L116.913 369.911L118.417 372.005C118.795 372.531 118.311 373.228 117.684 373.094L117.643 373.084L114.369 372.202L115.631 373.856C116.014 374.358 115.583 375.055 114.963 374.971L114.922 374.964L111.436 374.298L113.034 375.754C113.311 376.006 113.338 376.424 113.103 376.708L113.071 376.744C112.813 377.016 112.387 377.042 112.097 376.812L112.06 376.781L108.628 373.655C108.112 373.185 108.528 372.353 109.209 372.446L109.251 372.453L113.375 373.24L111.974 371.404C111.575 370.88 112.059 370.162 112.696 370.298L112.736 370.308L116.1 371.214L114.474 368.951C114.083 368.406 114.612 367.693 115.25 367.872L115.29 367.884L118.709 369.033L118.504 368.839C118.34 368.682 118.21 368.554 118.087 368.427L118.041 368.379C117.639 367.96 117.359 367.595 117.183 367.223C117.017 366.871 117.173 366.455 117.532 366.292Z" fill="#1C1B1B"/>
<path id="Path_12" d="M94.4456 382.446C94.5886 381.966 95.1018 381.69 95.592 381.83L95.9853 381.941C97.5857 382.387 98.7277 382.629 100.172 382.775C102.292 382.99 104.54 382.891 107.033 382.399C107.533 382.301 108.021 382.618 108.121 383.109C108.222 383.6 107.898 384.078 107.397 384.177C104.72 384.705 102.285 384.812 99.9819 384.578C98.288 384.406 96.9853 384.116 95.0745 383.57C94.5843 383.43 94.3027 382.927 94.4456 382.446Z" fill="white" fill-opacity="0.11"/>
<path id="Path_13" d="M114.159 376.143C116.745 373.903 118.669 372.781 120.738 370.29C121.859 370.29 123.338 370.414 127.606 370.414C133.167 370.414 134.641 368.171 137.099 365.558C138.965 366.677 138.004 369.044 139.297 372.281C140.332 374.874 142.272 378.758 142.272 383.492C141.366 384.987 132.443 384.238 129.598 384.238C128.951 381.25 123.908 378.758 121.663 378.137C119.692 377.59 117.392 377.388 114.159 376.143Z" fill="#1B1A1A"/>
</g>
<path id="Path_14" d="M115.719 361.625H139.89L139.447 363.757L138.569 367.841L133.286 369.519L117.389 369.325L117.125 368.159L116.775 366.476L116.333 364.534L115.719 361.625Z" fill="black"/>
</g>
<path id="Path_15" d="M149.708 279.271C166.486 279.271 180.087 273.183 180.087 265.674C180.087 258.165 166.486 252.078 149.708 252.078C132.931 252.078 119.329 258.165 119.329 265.674C119.329 273.183 132.931 279.271 149.708 279.271Z" fill="#2D2C2C"/>
<path id="Path_16" d="M149.003 247.676H189.156L183.803 363.697H158.594L149.003 247.676Z" fill="#1E1E1E"/>
<path id="Path_17" d="M150.06 247.676H109.907L115.261 363.697H140.469L150.06 247.676Z" fill="#1E1E1E"/>
</g>
<g id="upper limb">
<path id="Path_18" d="M174.579 177.798C179.515 186.376 184.279 199.86 187.315 213.482L187.407 213.895C188.845 220.425 189.788 226.575 190.13 231.63C190.296 234.074 190.316 236.199 190.199 237.918C190.15 238.64 190.077 239.269 189.987 239.793L189.966 239.913C189.896 240.3 189.824 240.581 189.768 240.742L189.756 240.775C187.912 245.749 190.529 251.246 195.602 253.055C200.675 254.864 206.283 252.298 208.128 247.324C210.993 239.6 210.072 225.997 206.515 209.849C203.1 194.35 197.673 178.928 191.605 168.382C188.953 163.773 182.992 162.144 178.29 164.744C173.588 167.344 171.927 173.189 174.579 177.798Z" fill="#EBBAAA"/>
<path id="Path_19" d="M109.28 168.382C103.212 178.928 97.7854 194.35 94.3712 209.849C90.8141 225.997 89.8931 239.6 92.7582 247.324C94.603 252.298 100.211 254.864 105.284 253.055C110.306 251.265 112.922 245.858 111.183 240.925L111.129 240.775C111.072 240.621 110.995 240.327 110.919 239.913C110.82 239.365 110.74 238.695 110.687 237.918C110.569 236.199 110.59 234.074 110.755 231.63C111.098 226.575 112.04 220.425 113.479 213.895C116.51 200.133 121.321 186.463 126.306 177.798C128.959 173.189 127.297 167.344 122.596 164.744C117.894 162.144 111.933 163.773 109.28 168.382Z" fill="#EBBAAA"/>
<rect id="Rectangle 69" width="44.8493" height="101.87" rx="21.25" transform="matrix(0.967186 0.254068 -0.263645 0.96462 105.857 139.941)" fill="#242424"/>
<rect id="Rectangle 285" width="44.8493" height="101.87" rx="21.25" transform="matrix(-0.967186 0.254068 0.263645 0.96462 194.143 139.941)" fill="#242424"/>
<path id="Rectangle 359" d="M110.612 152.113H144.777H189.861V241.201H110.612V152.113Z" fill="white"/>
<path id="Rectangle 191" d="M194.855 155.656C195.023 150.732 191.631 146.372 186.742 145.231L168.637 141.005C165.053 140.169 161.541 142.626 161.183 146.221L156.313 195.103L150.06 228.77V253.373L157.105 258.812H192.297C193.834 258.812 195.046 257.53 194.931 256.028L192.503 224.368L194.855 155.656Z" fill="#2D2C2C"/>
<path id="Rectangle 358" d="M105.619 155.656C105.45 150.732 108.843 146.372 113.732 145.231L131.837 141.005C135.42 140.169 138.933 142.626 139.291 146.221L144.161 195.103L150.06 228.77V253.373L143.369 258.812H108.177C106.64 258.812 105.427 257.53 105.542 256.028L107.971 224.368L105.619 155.656Z" fill="#2D2C2C"/>
<path id="Path_20" d="M140.199 129.818C140.199 124.396 144.706 120 150.237 120C155.768 120 160.275 124.396 160.275 129.818V148.377C160.275 149.309 160.14 150.237 159.873 151.131L150.237 183.449L140.601 151.131C140.334 150.237 140.199 149.309 140.199 148.377V129.818Z" fill="#EBBAAA"/>
<path id="Vector 264" d="M152.878 157.811L160.275 134.762L169.785 140.2L171.634 172.572L152.878 157.811Z" fill="white"/>
<path id="Vector 717" d="M147.595 157.811L140.199 134.762L130.689 140.2L128.84 172.572L147.595 157.811Z" fill="white"/>
</g>
</g>
<g id="head">
<path id="Path_21"  d="M185.818 103.839C191.169 103.839 195.507 99.5007 195.507 94.1498C195.507 88.7989 191.169 84.4609 185.818 84.4609C180.467 84.4609 176.129 88.7989 176.129 94.1498C176.129 99.5007 180.467 103.839 185.818 103.839Z" fill="#EBBAAA"/>
<path id="Path_22"  d="M113.152 103.839C107.801 103.839 103.463 99.5007 103.463 94.1498C103.463 88.7989 107.801 84.4609 113.152 84.4609C118.503 84.4609 122.841 88.7989 122.841 94.1498C122.841 99.5007 118.503 103.839 113.152 103.839Z" fill="#EBBAAA"/>
<path id="Path_23" d="M113.636 70.412C113.636 50.3457 129.903 34.0789 149.97 34.0789C170.036 34.0789 186.303 50.3457 186.303 70.412V99.4784C186.303 119.545 170.036 135.812 149.97 135.812C129.903 135.812 113.636 119.545 113.636 99.4784V70.412Z" fill="#F4D5CC"/>
<path d="M144 60 Q150 58 156 60" stroke="#B08A72" stroke-width="1" stroke-opacity="0.5" stroke-linecap="round" fill="none"/><path d="M145 66 Q150 64 155 66" stroke="#B08A72" stroke-width="1" stroke-opacity="0.5" stroke-linecap="round" fill="none"/><path d="M124 86 L120 83" stroke="#B08A72" stroke-width="1" stroke-opacity="0.5" stroke-linecap="round" fill="none"/><path d="M124 89 L119 89" stroke="#B08A72" stroke-width="1" stroke-opacity="0.5" stroke-linecap="round" fill="none"/><path d="M124 92 L120 95" stroke="#B08A72" stroke-width="1" stroke-opacity="0.5" stroke-linecap="round" fill="none"/><path d="M176 86 L180 83" stroke="#B08A72" stroke-width="1" stroke-opacity="0.5" stroke-linecap="round" fill="none"/><path d="M176 89 L181 89" stroke="#B08A72" stroke-width="1" stroke-opacity="0.5" stroke-linecap="round" fill="none"/><path d="M176 92 L180 95" stroke="#B08A72" stroke-width="1" stroke-opacity="0.5" stroke-linecap="round" fill="none"/><path d="M131 95 Q134 97 138 95" stroke="#B08A72" stroke-width="1" stroke-opacity="0.5" stroke-linecap="round" fill="none"/><path d="M162 95 Q165 97 169 95" stroke="#B08A72" stroke-width="1" stroke-opacity="0.5" stroke-linecap="round" fill="none"/><path d="M139 103 Q136 107 133 111" stroke="#B08A72" stroke-width="1" stroke-opacity="0.5" stroke-linecap="round" fill="none"/><path d="M161 103 Q164 107 167 111" stroke="#B08A72" stroke-width="1" stroke-opacity="0.5" stroke-linecap="round" fill="none"/>

<path id="Path_24" d="M165.229 83.7341C166.81 83.7341 168.096 84.9957 168.135 86.5669L168.136 86.6408V89.5474C168.136 91.1527 166.835 92.4541 165.229 92.4541C163.649 92.4541 162.363 91.1925 162.324 89.6213L162.323 89.5474V86.6408C162.323 85.0355 163.624 83.7341 165.229 83.7341Z" fill="black"/>
<path id="Path_25" d="M133.862 83.7341C135.442 83.7341 136.728 84.9957 136.767 86.5669L136.768 86.6408V89.5474C136.768 91.1527 135.467 92.4541 133.862 92.4541C132.281 92.4541 130.995 91.1925 130.956 89.6213L130.955 89.5474V86.6408C130.955 85.0355 132.256 83.7341 133.862 83.7341Z" fill="black"/>
<path id="Path_26" d="M158.239 114.82C159.13 114.304 160.271 114.608 160.788 115.499C161.304 116.39 161 117.531 160.109 118.048L159.99 118.114C159.953 118.134 159.911 118.156 159.864 118.18C159.699 118.265 159.507 118.358 159.288 118.456C158.685 118.728 157.982 118.996 157.184 119.244C154.941 119.942 152.364 120.358 149.485 120.358C146.607 120.358 144.029 119.942 141.786 119.244C140.988 118.996 140.286 118.728 139.682 118.456C139.5 118.375 139.336 118.296 139.191 118.223L139.106 118.18C138.997 118.124 138.915 118.079 138.861 118.048C137.97 117.531 137.666 116.39 138.183 115.499C138.688 114.626 139.793 114.317 140.675 114.789L140.782 114.848C140.855 114.887 140.981 114.949 141.158 115.03L141.213 115.055C141.681 115.266 142.243 115.48 142.893 115.682C144.788 116.272 146.994 116.628 149.485 116.628C151.976 116.628 154.182 116.272 156.077 115.682C156.673 115.497 157.195 115.301 157.638 115.108L157.758 115.055C157.964 114.962 158.108 114.891 158.188 114.848L158.239 114.82Z" fill="#C99584"/>

<path id="Path_30" d="M147.772 90.5854L151.198 92.8696C150.034 94.6163 149.122 97.2381 149.122 99.1455C149.122 100.984 149.786 101.757 151.818 101.779L151.907 101.78V105.897C147.416 105.897 145.004 103.184 145.004 99.1455C145.004 96.4096 146.142 93.0885 147.687 90.714L147.772 90.5854Z" fill="#EBBAAA"/>
</g>
</g>
</g>
</g></svg>